<?xml version="1.0" encoding="UTF-8" standalone="yes"?>
<svg xmlns="http://www.w3.org/2000/svg" xmlns:xlink="http://www.w3.org/1999/xlink" width="500" zoomAndPan="magnify" viewBox="0 0 375 149.999998" height="200" preserveAspectRatio="xMidYMid meet" version="1.0">
  <defs>
    <g/>
    <clipPath id="29ff69c79c">
      <path d="M 326 44.492188 L 362.394531 44.492188 L 362.394531 105.242188 L 326 105.242188 Z M 326 44.492188 " clip-rule="nonzero"/>
    </clipPath>
    <clipPath id="d0571937d1">
      <path d="M 306.144531 44.492188 L 331 44.492188 L 331 105.242188 L 306.144531 105.242188 Z M 306.144531 44.492188 " clip-rule="nonzero"/>
    </clipPath>
  </defs>
  <rect x="-37.5" width="450" fill="#ffffff" y="-15" height="179.999997" fill-opacity="1"/>
  <rect x="-37.5" width="450" fill="#ffffff" y="-15" height="179.999997" fill-opacity="1"/>
  <g clip-path="url(#29ff69c79c)">
    <path fill="#ff0000" d="M 361.558594 44.5 L 346.875 44.5 L 326.882812 74.425781 L 347.527344 105.472656 L 362.183594 105.472656 L 341.507812 74.515625 Z M 355.296875 47.84375 L 338.722656 72.660156 L 337.480469 74.515625 L 338.722656 76.375 L 355.925781 102.128906 L 349.320312 102.128906 L 330.90625 74.429688 L 348.664062 47.84375 L 355.296875 47.84375 " fill-opacity="1" fill-rule="nonzero"/>
  </g>
  <g clip-path="url(#d0571937d1)">
    <path fill="#ff0000" d="M 329.582031 56.722656 L 321.453125 44.5 L 306.769531 44.5 L 322.242188 67.714844 Z M 316.222656 90.390625 L 306.144531 105.472656 L 320.828125 105.472656 L 330.902344 90.390625 L 316.222656 90.390625 " fill-opacity="1" fill-rule="nonzero"/>
  </g>
  <g fill="#000000" fill-opacity="1">
    <g transform="translate(11.172142, 98.150943)">
      <g>
        <path d="M 1.578125 -28.453125 C 1.578125 -36.671875 4.378906 -43.625 9.984375 -49.3125 C 15.585938 -55.007812 22.335938 -57.859375 30.234375 -57.859375 C 38.179688 -57.859375 44.929688 -55.019531 50.484375 -49.34375 C 56.035156 -43.675781 58.8125 -36.710938 58.8125 -28.453125 C 58.8125 -20.140625 56.078125 -13.144531 50.609375 -7.46875 C 45.148438 -1.800781 38.359375 1.03125 30.234375 1.03125 C 21.921875 1.03125 15.066406 -1.78125 9.671875 -7.40625 C 4.273438 -13.03125 1.578125 -20.046875 1.578125 -28.453125 Z M 15.5625 -28.453125 C 15.5625 -25.460938 16.019531 -22.738281 16.9375 -20.28125 C 17.863281 -17.820312 19.472656 -15.742188 21.765625 -14.046875 C 24.054688 -12.347656 26.878906 -11.5 30.234375 -11.5 C 35.054688 -11.5 38.695312 -13.148438 41.15625 -16.453125 C 43.613281 -19.765625 44.84375 -23.765625 44.84375 -28.453125 C 44.84375 -33.085938 43.585938 -37.066406 41.078125 -40.390625 C 38.578125 -43.722656 34.960938 -45.390625 30.234375 -45.390625 C 25.546875 -45.390625 21.925781 -43.722656 19.375 -40.390625 C 16.832031 -37.066406 15.5625 -33.085938 15.5625 -28.453125 Z M 15.5625 -28.453125 "/>
      </g>
    </g>
  </g>
  <g fill="#000000" fill-opacity="1">
    <g transform="translate(71.572076, 98.150943)">
      <g>
        <path d="M 22.9375 -26.375 C 20.632812 -26.375 18.65625 -25.523438 17 -23.828125 C 15.351562 -22.128906 14.53125 -20.085938 14.53125 -17.703125 C 14.53125 -15.265625 15.351562 -13.195312 17 -11.5 C 18.65625 -9.800781 20.632812 -8.953125 22.9375 -8.953125 C 24.039062 -8.953125 25.082031 -9.085938 26.0625 -9.359375 C 27.050781 -9.640625 27.773438 -9.914062 28.234375 -10.1875 L 28.859375 -10.609375 L 32.984375 -2.140625 C 32.671875 -1.910156 32.222656 -1.617188 31.640625 -1.265625 C 31.066406 -0.921875 29.757812 -0.453125 27.71875 0.140625 C 25.675781 0.734375 23.484375 1.03125 21.140625 1.03125 C 15.953125 1.03125 11.394531 -0.789062 7.46875 -4.4375 C 3.539062 -8.09375 1.578125 -12.46875 1.578125 -17.5625 C 1.578125 -22.707031 3.539062 -27.125 7.46875 -30.8125 C 11.394531 -34.507812 15.953125 -36.359375 21.140625 -36.359375 C 23.484375 -36.359375 25.640625 -36.082031 27.609375 -35.53125 C 29.585938 -34.988281 30.988281 -34.441406 31.8125 -33.890625 L 32.984375 -33.0625 L 28.859375 -24.71875 C 27.335938 -25.820312 25.363281 -26.375 22.9375 -26.375 Z M 22.9375 -26.375 "/>
      </g>
    </g>
  </g>
  <g fill="#000000" fill-opacity="1">
    <g transform="translate(105.387774, 98.150943)">
      <g>
        <path d="M 6.203125 -35.328125 L 6.203125 -48.484375 L 18.390625 -48.484375 L 18.390625 -35.328125 L 25.828125 -35.328125 L 25.828125 -26.03125 L 18.390625 -26.03125 L 18.390625 -14.8125 C 18.390625 -11.550781 19.304688 -9.921875 21.140625 -9.921875 C 21.597656 -9.921875 22.078125 -10.007812 22.578125 -10.1875 C 23.085938 -10.375 23.484375 -10.5625 23.765625 -10.75 L 24.171875 -11.015625 L 27.203125 -1.171875 C 24.585938 0.296875 21.601562 1.03125 18.25 1.03125 C 15.957031 1.03125 13.984375 0.628906 12.328125 -0.171875 C 10.671875 -0.972656 9.414062 -2.050781 8.5625 -3.40625 C 7.71875 -4.757812 7.113281 -6.179688 6.75 -7.671875 C 6.382812 -9.171875 6.203125 -10.769531 6.203125 -12.46875 L 6.203125 -26.03125 L 1.109375 -26.03125 L 1.109375 -35.328125 Z M 6.203125 -35.328125 "/>
      </g>
    </g>
  </g>
  <g fill="#000000" fill-opacity="1">
    <g transform="translate(132.591855, 98.150943)">
      <g>
        <path d="M 7.46875 -4.203125 C 3.539062 -7.691406 1.578125 -12.164062 1.578125 -17.625 C 1.578125 -23.09375 3.617188 -27.582031 7.703125 -31.09375 C 11.796875 -34.601562 16.847656 -36.359375 22.859375 -36.359375 C 28.785156 -36.359375 33.78125 -34.59375 37.84375 -31.0625 C 41.90625 -27.53125 43.9375 -23.050781 43.9375 -17.625 C 43.9375 -12.207031 41.953125 -7.742188 37.984375 -4.234375 C 34.015625 -0.722656 28.972656 1.03125 22.859375 1.03125 C 16.523438 1.03125 11.394531 -0.710938 7.46875 -4.203125 Z M 16.90625 -23.625 C 15.320312 -22.0625 14.53125 -20.0625 14.53125 -17.625 C 14.53125 -15.195312 15.285156 -13.210938 16.796875 -11.671875 C 18.316406 -10.128906 20.316406 -9.359375 22.796875 -9.359375 C 25.179688 -9.359375 27.144531 -10.140625 28.6875 -11.703125 C 30.226562 -13.265625 31 -15.238281 31 -17.625 C 31 -20.0625 30.203125 -22.0625 28.609375 -23.625 C 27.023438 -25.1875 25.085938 -25.96875 22.796875 -25.96875 C 20.453125 -25.96875 18.488281 -25.1875 16.90625 -23.625 Z M 16.90625 -23.625 "/>
      </g>
    </g>
  </g>
  <g fill="#000000" fill-opacity="1">
    <g transform="translate(178.115638, 98.150943)">
      <g>
        <path d="M 40.5 -30.953125 C 43.800781 -27.347656 45.453125 -22.925781 45.453125 -17.6875 C 45.453125 -12.457031 43.800781 -8.03125 40.5 -4.40625 C 37.195312 -0.78125 32.992188 1.03125 27.890625 1.03125 C 23.210938 1.03125 19.359375 -0.4375 16.328125 -3.375 L 16.328125 17.90625 L 4.125 17.90625 L 4.125 -35.328125 L 16.1875 -35.328125 L 16.1875 -31.34375 L 16.328125 -31.34375 C 19.359375 -34.6875 23.210938 -36.359375 27.890625 -36.359375 C 32.992188 -36.359375 37.195312 -34.554688 40.5 -30.953125 Z M 30.125 -11.703125 C 31.71875 -13.265625 32.515625 -15.257812 32.515625 -17.6875 C 32.515625 -20.125 31.753906 -22.113281 30.234375 -23.65625 C 28.722656 -25.195312 26.726562 -25.96875 24.25 -25.96875 C 21.851562 -25.96875 19.882812 -25.1875 18.34375 -23.625 C 16.8125 -22.0625 16.046875 -20.085938 16.046875 -17.703125 C 16.046875 -15.265625 16.835938 -13.265625 18.421875 -11.703125 C 20.003906 -10.140625 21.945312 -9.359375 24.25 -9.359375 C 26.582031 -9.359375 28.539062 -10.140625 30.125 -11.703125 Z M 30.125 -11.703125 "/>
      </g>
    </g>
  </g>
  <g fill="#000000" fill-opacity="1">
    <g transform="translate(225.154583, 98.150943)">
      <g>
        <path d="M 15.640625 -35.328125 L 15.640625 -18.53125 C 15.640625 -15.039062 16.164062 -12.5625 17.21875 -11.09375 C 18.269531 -9.625 20.054688 -8.890625 22.578125 -8.890625 C 25.109375 -8.890625 26.898438 -9.625 27.953125 -11.09375 C 29.015625 -12.5625 29.546875 -15.039062 29.546875 -18.53125 L 29.546875 -35.328125 L 41.734375 -35.328125 L 41.734375 -15.5625 C 41.734375 -9.6875 40.207031 -5.453125 37.15625 -2.859375 C 34.101562 -0.265625 29.25 1.03125 22.59375 1.03125 C 15.9375 1.03125 11.078125 -0.265625 8.015625 -2.859375 C 4.960938 -5.453125 3.4375 -9.6875 3.4375 -15.5625 L 3.4375 -35.328125 Z M 15.640625 -35.328125 "/>
      </g>
    </g>
  </g>
  <g fill="#000000" fill-opacity="1">
    <g transform="translate(270.334024, 98.150943)">
      <g>
        <path d="M 19.484375 -36.359375 C 21.503906 -36.359375 23.503906 -36.128906 25.484375 -35.671875 C 27.460938 -35.210938 28.929688 -34.753906 29.890625 -34.296875 L 31.34375 -33.609375 L 27.34375 -25.625 C 24.582031 -27.09375 21.960938 -27.828125 19.484375 -27.828125 C 18.109375 -27.828125 17.132812 -27.675781 16.5625 -27.375 C 15.988281 -27.082031 15.703125 -26.519531 15.703125 -25.6875 C 15.703125 -25.507812 15.722656 -25.328125 15.765625 -25.140625 C 15.816406 -24.953125 15.910156 -24.773438 16.046875 -24.609375 C 16.179688 -24.453125 16.304688 -24.316406 16.421875 -24.203125 C 16.535156 -24.085938 16.726562 -23.960938 17 -23.828125 C 17.28125 -23.691406 17.5 -23.585938 17.65625 -23.515625 C 17.820312 -23.453125 18.085938 -23.347656 18.453125 -23.203125 C 18.828125 -23.066406 19.101562 -22.960938 19.28125 -22.890625 C 19.46875 -22.828125 19.78125 -22.726562 20.21875 -22.59375 C 20.65625 -22.457031 20.988281 -22.363281 21.21875 -22.3125 C 22.632812 -21.90625 23.867188 -21.445312 24.921875 -20.9375 C 25.984375 -20.4375 27.097656 -19.75 28.265625 -18.875 C 29.441406 -18 30.347656 -16.894531 30.984375 -15.5625 C 31.628906 -14.226562 31.953125 -12.710938 31.953125 -11.015625 C 31.953125 -2.984375 26.375 1.03125 15.21875 1.03125 C 12.695312 1.03125 10.296875 0.640625 8.015625 -0.140625 C 5.742188 -0.921875 4.101562 -1.703125 3.09375 -2.484375 L 1.578125 -3.71875 L 6.546875 -12.046875 C 6.910156 -11.734375 7.390625 -11.359375 7.984375 -10.921875 C 8.585938 -10.484375 9.664062 -9.882812 11.21875 -9.125 C 12.78125 -8.363281 14.140625 -7.984375 15.296875 -7.984375 C 17.816406 -7.984375 19.078125 -8.832031 19.078125 -10.53125 C 19.078125 -11.3125 18.753906 -11.921875 18.109375 -12.359375 C 17.472656 -12.796875 16.382812 -13.289062 14.84375 -13.84375 C 13.300781 -14.394531 12.097656 -14.898438 11.234375 -15.359375 C 9.023438 -16.503906 7.273438 -17.800781 5.984375 -19.25 C 4.703125 -20.695312 4.0625 -22.613281 4.0625 -25 C 4.0625 -28.582031 5.445312 -31.367188 8.21875 -33.359375 C 11 -35.359375 14.753906 -36.359375 19.484375 -36.359375 Z M 19.484375 -36.359375 "/>
      </g>
    </g>
  </g>
</svg>